<svg width="105" height="17" viewBox="0 0 105 17" fill="none" xmlns="http://www.w3.org/2000/svg">
<path d="M15.2102 7.45917L11.0308 11.6386C14.3743 14.9822 20.8944 12.1098 20.8944 7.45917H15.2102Z" fill="#1A3396"/>
<path d="M15.2097 7.45918V1.37994C7.23085 2.13985 8.75023 9.73889 11.0302 11.6386L15.2097 7.45918Z" fill="#89CFF0"/>
<path d="M15.21 7.83913V1.37994C20.3773 1.98787 21.4158 5.93937 21.2892 7.83913H15.21Z" fill="#D9D9D9"/>
<path d="M1 9.00938C1 9.00938 8.03988 1.25836 15.209 1.25836C22.3781 1.25836 29.4204 9.00938 29.4204 9.00938" stroke="black" stroke-width="1.80857"/>
<path d="M1 7.71754C1 7.71754 5.65061 15.4686 15.2102 15.4686C24.7698 15.4686 29.4204 7.71755 29.4204 7.71755" stroke="black" stroke-width="1.80857"/>
<circle cx="15.2102" cy="7.45918" r="5.68408" stroke="black" stroke-width="1.5502"/>
<path d="M15.21 7.45918V1.37994" stroke="black" stroke-width="1.51981"/>
<path d="M21.1528 7.45917H15.2102L11.0308 11.6386" stroke="black" stroke-width="1.51981"/>
<path d="M38.176 3.914H41.144C41.564 3.914 41.9 3.92333 42.152 3.942C42.4133 3.96067 42.6887 4.00267 42.978 4.068C43.2767 4.13333 43.5147 4.23133 43.692 4.362C43.8787 4.49267 44.0373 4.67 44.168 4.894C44.2893 5.10867 44.35 5.37933 44.35 5.706V7.596C44.35 8.352 44.056 8.898 43.468 9.234C42.8893 9.56067 42.0307 9.724 40.892 9.724H39.534V13H38.176V3.914ZM41.074 8.87C41.662 8.87 42.1333 8.76267 42.488 8.548C42.8427 8.33333 43.02 7.99267 43.02 7.526V5.874C43.02 5.622 42.9547 5.41667 42.824 5.258C42.6933 5.09 42.5067 4.97333 42.264 4.908C42.0307 4.852 41.8347 4.81467 41.676 4.796C41.5173 4.77733 41.3073 4.768 41.046 4.768H39.52V8.87H41.074ZM47.2804 3.914H50.4724C51.275 3.914 51.9004 3.96533 52.3484 4.068C52.8057 4.16133 53.137 4.334 53.3424 4.586C53.557 4.838 53.6644 5.20667 53.6644 5.692V7.26C53.6644 7.80133 53.4404 8.22133 52.9924 8.52C52.5537 8.80933 51.9937 8.954 51.3124 8.954L54.2244 13H52.5584L49.9544 9.122H48.6384V13H47.2804V3.914ZM50.4164 8.226C51.0884 8.226 51.569 8.14667 51.8584 7.988C52.157 7.82 52.3064 7.52133 52.3064 7.092V5.832C52.3064 5.15067 51.7184 4.81 50.5424 4.81H48.6384V8.226H50.4164ZM60.8021 13.14C58.2634 13.14 56.9941 12.3187 56.9941 10.676V6.378C56.9941 4.642 58.2634 3.774 60.8021 3.774C63.3687 3.774 64.6521 4.63733 64.6521 6.364V10.676C64.6521 11.5533 64.2974 12.1833 63.5881 12.566C62.8787 12.9487 61.9501 13.14 60.8021 13.14ZM60.8301 12.23C62.5007 12.23 63.3361 11.7073 63.3361 10.662V6.336C63.3361 5.216 62.4961 4.656 60.8161 4.656C60.0041 4.656 59.3787 4.782 58.9401 5.034C58.5107 5.286 58.2961 5.72 58.2961 6.336V10.662C58.2961 11.7073 59.1407 12.23 60.8301 12.23ZM66.902 3.914H68.316L71.228 11.712H71.354L74.266 3.914H75.61L71.998 13H70.43L66.902 3.914ZM78.1208 3.914H79.4788V13H78.1208V3.914ZM82.9459 3.914H89.0499V4.866H84.3039V7.834H88.5879V8.786H84.3039V12.048H89.1899V13H82.9459V3.914ZM91.123 3.914H92.565L94.819 11.712H94.847L97.101 3.914H98.543L100.797 11.712H100.825L103.079 3.914H104.451L101.525 13H99.943L97.773 5.44L95.547 13H93.965L91.123 3.914Z" fill="black"/>
</svg>
